<svg aria-hidden="true" style="position:absolute;width:0;height:0;overflow:hidden" xmlns="http://www.w3.org/2000/svg"><defs>
<symbol id="icon-Burger" viewBox="0 0 46 32 "><path fill="none" stroke="#d41443" style="stroke:var(--color1, #d41443)" stroke-width="2.286" d="M0 2.286h45.714M0 16h45.714M0 29.714h45.714"/></symbol>
<symbol id="icon-close" viewBox="0 0 32 32"><path fill="none" stroke="#fff" style="stroke:var(--color2, #fff)" stroke-width="2" d="m2.52 2 26.96 28M2 29.48 30 2.52"/></symbol>
<symbol id="icon-direction-right" viewBox="0 0 32 32"><path d="M10.603 15.317c0 .235.085.448.245.608s.363.235.597.213h7.019l-1.099 1.152a.818.818 0 0 0-.256.587c0 .235.085.448.256.608a.827.827 0 0 0 .619.245.757.757 0 0 0 .565-.288l2.613-2.571a.827.827 0 0 0 .245-.619.885.885 0 0 0-.256-.619l-2.635-2.549a.716.716 0 0 0-.541-.246l-.037.001h.002a.82.82 0 0 0-.608.235.78.78 0 0 0-.245.597c0 .245.085.448.245.608l1.131 1.152h-7.029a.82.82 0 0 0-.597.266l-.001.001a.898.898 0 0 0-.235.619z"/></symbol>
<symbol id="icon-facebook" viewBox="0 0 33 32"><path d="M16.47 32c8.837 0 16-7.163 16-16s-7.163-16-16-16c-8.836 0-16 7.163-16 16s7.164 16 16 16z"/><path fill="#fff" style="fill:var(--color2, #fff)" d="M20.916 15.981h-2.61V25.6h-3.955v-9.62h-1.88V12.6h1.88v-2.187c0-1.565.74-4.014 3.99-4.014l2.93.012v3.281h-2.126c-.348 0-.839.176-.839.922v1.99h2.956l-.346 3.376z"/></symbol>
<symbol id="icon-github" viewBox="0 0 32 32"><path d="M32 16c0 8.837-7.163 16-16 16S0 24.837 0 16 7.163 0 16 0s16 7.163 16 16z"/><path fill="#fff" style="fill:var(--color2, #fff)" d="M16 6.588c-5.17 0-9.412 4.242-9.412 9.412 0 4.411 3.096 8.418 7.206 9.412v-3.114a2.307 2.307 0 0 1-1.197-.03c-.556-.165-1.008-.535-1.343-1.1-.214-.361-.593-.752-.988-.723l-.097-1.1c.855-.072 1.594.522 2.033 1.26.195.327.42.52.708.605.278.082.577.042.926-.08.087-.698.407-.96.648-1.327-2.451-.366-3.428-1.667-3.816-2.693-.514-1.363-.238-3.066.67-4.142.018-.021.05-.076.038-.114-.417-1.259.09-2.3.11-2.41.48.142.558-.143 2.088.786l.264.159c.11.066.076.028.187.02a7.77 7.77 0 0 1 1.969-.279H16a7.986 7.986 0 0 1 2.058.299l-.056-.014.086.008c-.008 0 .023-.005.075-.036 1.91-1.157 1.842-.779 2.354-.945.019.11.52 1.168.108 2.41-.056.172 1.656 1.74.707 4.256-.388 1.027-1.365 2.328-3.816 2.693v.001c.314.479.692.734.69 1.722v3.887c4.11-.994 7.206-5 7.206-9.412 0-5.17-4.242-9.412-9.412-9.412z"/></symbol>
<symbol id="icon-telegram" viewBox="0 0 33 32"><path d="M32.235 16c0 8.837-7.163 16-16 16s-16-7.163-16-16 7.163-16 16-16 16 7.163 16 16z"/><path fill="#fff" style="fill:var(--color2, #fff)" d="m13.102 18.375-.317 4.17c.454 0 .651-.183.887-.401l2.13-1.9 4.415 3.017c.81.42 1.38.199 1.599-.695l2.897-12.673h.001c.257-1.118-.433-1.554-1.222-1.28L6.46 14.699c-1.162.42-1.145 1.026-.198 1.3l4.355 1.264 10.114-5.907c.476-.294.91-.131.553.163l-8.181 6.856z"/></symbol><symbol id="icon-Vector-red" viewBox="0 0 26 32"><path fill="none" stroke="#d41443" style="stroke:var(--color1, #d41443)" stroke-linejoin="round" stroke-linecap="round" stroke-width="6.4" d="M3.542 3.2 20.368 16 3.542 28.8"/></symbol><symbol id="icon-Vector-white" viewBox="0 0 19 32"><path fill="none" stroke="#fff" style="stroke:var(--color2, #fff)" stroke-linejoin="round" stroke-linecap="round" stroke-width="6.4" d="M3.2 3.2 14.752 16 3.2 28.8"/></symbol>
<symbol id="icon-arrow-right" viewBox="0 0 32 32"><path d="m19.414 27.414 10-10a2 2 0 0 0 0-2.828l-10-10a2 2 0 1 0-2.828 2.828L23.172 14H4a2 2 0 1 0 0 4h19.172l-6.586 6.586c-.39.39-.586.902-.586 1.414s.195 1.024.586 1.414a2 2 0 0 0 2.828 0z"/></symbol>
<symbol id="icon-icecream" viewBox="0 0 50 50"><path d="M49.289 25.5c0 13.531-10.809 24.5-24.142 24.5S1.006 39.031 1.006 25.5 11.814 1 25.147 1C38.48 1 49.29 11.969 49.29 25.5Z" fill="#fff"/><path d="M18.623.878C6.983 4.382 0 13.492 0 25.005c0 9.41 4.858 17.62 12.854 21.725 4.15 2.102 4.757.6.911-2.303-2.733-2.202-3.239-3.203-3.239-6.907 0-2.604-.607-4.706-1.518-5.507-1.822-1.501-2.024-5.406-.202-6.808.708-.6 1.417-2.603 1.518-4.405.506-6.607 7.692-12.814 14.878-12.814 7.187 0 14.373 6.207 14.879 12.814.101 1.802.81 3.805 1.518 4.405 1.822 1.402 1.62 5.307-.202 6.808-.911.801-1.518 2.904-1.518 5.507 0 3.704-.506 4.705-3.24 6.907-4.25 3.304-3.036 4.506 1.721 1.602C45.04 41.924 50 33.014 50 25.105 50 9.287 33.4-3.528 18.623.878Z" /><path d="M19.94 12.49c-1.823.802-3.34 1.803-3.34 2.403 0 1.102 5.465 3.104 8.602 3.104 3.138 0 8.604-2.002 8.604-3.104 0-1.2-6.276-3.904-8.806-3.904-1.012.1-3.34.7-5.06 1.502ZM14.17 18.698c-.304.4-.607 1.702-.607 3.003 0 2.303.1 2.303 11.64 2.303 11.538 0 11.639 0 11.639-2.303 0-3.404-.911-3.804-4.15-2.202-3.644 1.902-11.336 1.902-14.98 0-1.619-.801-3.137-1.101-3.542-.801ZM11.235 27.608c-1.62 1.702 1.113 2.403 9.008 2.403h8.502v3.504c0 1.902.506 3.504 1.012 3.504.607 0 1.012-1.502 1.012-3.404 0-3.304.203-3.504 4.049-3.804 2.226-.2 4.048-.801 4.048-1.302 0-1.101-26.518-2.002-27.631-.901Z" /><path d="M13.563 36.418c0 5.506 1.923 6.608 11.64 6.608 9.716 0 11.639-1.102 11.639-6.608 0-2.403-.506-3.404-1.518-3.404-.911 0-1.518.901-1.518 2.403 0 5.606-7.693 6.107-8.806.6-.506-2.903-.81-3.003-5.972-3.003h-5.465v3.404ZM19.838 47.731c.607 3.204 10.931 2.904 10.931-.2 0-1.101-1.315-1.502-5.668-1.502-4.757 0-5.566.3-5.263 1.702Z" /></symbol>
<symbol id="icon-arrow" viewBox="0 0 22 32">
<path d="M4.438 0c-0.882 0.030-1.669 0.413-2.23 1.011l-0.002 0.002c-0.534 0.57-0.862 1.339-0.862 2.184 0 0.923 0.391 1.755 1.016 2.339l0.002 0.002 11.2 10.463-11.2 10.462c-0.627 0.586-1.018 1.418-1.018 2.341 0 0.845 0.328 1.614 0.863 2.186l-0.002-0.002c0.586 0.625 1.416 1.015 2.337 1.015 0.847 0 1.617-0.329 2.189-0.866l-0.002 0.002 13.7-12.8c0.625-0.586 1.014-1.416 1.014-2.337s-0.389-1.752-1.013-2.336l-0.002-0.002-13.7-12.8c-0.571-0.535-1.341-0.864-2.187-0.864-0.037 0-0.075 0.001-0.112 0.002l0.005-0z"></path>
</symbol>
</defs></svg>
<svg aria-hidden="true" style="position:absolute;width:0;height:0;overflow:hidden" xmlns="http://www.w3.org/2000/svg"><defs><symbol id="icon-Burger" viewBox="0 0 46 32"><path fill="none" stroke="#d41443" style="stroke:var(--color1, #d41443)" stroke-width="2.286" d="M0 2.286h45.714M0 16h45.714M0 29.714h45.714"/></symbol><symbol id="icon-close" viewBox="0 0 32 32"><path fill="none" stroke="#fff" style="stroke:var(--color2, #fff)" stroke-width="2" d="m2.52 2 26.96 28M2 29.48 30 2.52"/></symbol><symbol id="icon-direction-right" viewBox="0 0 32 32"><path d="M10.603 15.317c0 .235.085.448.245.608s.363.235.597.213h7.019l-1.099 1.152a.818.818 0 0 0-.256.587c0 .235.085.448.256.608a.827.827 0 0 0 .619.245.757.757 0 0 0 .565-.288l2.613-2.571a.827.827 0 0 0 .245-.619.885.885 0 0 0-.256-.619l-2.635-2.549a.716.716 0 0 0-.541-.246l-.037.001h.002a.82.82 0 0 0-.608.235.78.78 0 0 0-.245.597c0 .245.085.448.245.608l1.131 1.152h-7.029a.82.82 0 0 0-.597.266l-.001.001a.898.898 0 0 0-.235.619z"/></symbol><symbol id="icon-facebook" viewBox="0 0 33 32"><path fill="#fea5bb" style="fill:var(--color3, #fea5bb)" d="M16.47 32c8.837 0 16-7.163 16-16s-7.163-16-16-16c-8.836 0-16 7.163-16 16s7.164 16 16 16z"/><path fill="#fff" style="fill:var(--color2, #fff)" d="M20.916 15.981h-2.61V25.6h-3.955v-9.62h-1.88V12.6h1.88v-2.187c0-1.565.74-4.014 3.99-4.014l2.93.012v3.281h-2.126c-.348 0-.839.176-.839.922v1.99h2.956l-.346 3.376z"/></symbol><symbol id="icon-github" viewBox="0 0 32 32"><path fill="#fea5bb" style="fill:var(--color3, #fea5bb)" d="M32 16c0 8.837-7.163 16-16 16S0 24.837 0 16 7.163 0 16 0s16 7.163 16 16z"/><path fill="#fff" style="fill:var(--color2, #fff)" d="M16 6.588c-5.17 0-9.412 4.242-9.412 9.412 0 4.411 3.096 8.418 7.206 9.412v-3.114a2.307 2.307 0 0 1-1.197-.03c-.556-.165-1.008-.535-1.343-1.1-.214-.361-.593-.752-.988-.723l-.097-1.1c.855-.072 1.594.522 2.033 1.26.195.327.42.52.708.605.278.082.577.042.926-.08.087-.698.407-.96.648-1.327-2.451-.366-3.428-1.667-3.816-2.693-.514-1.363-.238-3.066.67-4.142.018-.021.05-.076.038-.114-.417-1.259.09-2.3.11-2.41.48.142.558-.143 2.088.786l.264.159c.11.066.076.028.187.02a7.77 7.77 0 0 1 1.969-.279H16a7.986 7.986 0 0 1 2.058.299l-.056-.014.086.008c-.008 0 .023-.005.075-.036 1.91-1.157 1.842-.779 2.354-.945.019.11.52 1.168.108 2.41-.056.172 1.656 1.74.707 4.256-.388 1.027-1.365 2.328-3.816 2.693v.001c.314.479.692.734.69 1.722v3.887c4.11-.994 7.206-5 7.206-9.412 0-5.17-4.242-9.412-9.412-9.412z"/></symbol><symbol id="icon-telegram" viewBox="0 0 33 32"><path fill="#fea5bb" style="fill:var(--color3, #fea5bb)" d="M32.235 16c0 8.837-7.163 16-16 16s-16-7.163-16-16 7.163-16 16-16 16 7.163 16 16z"/><path fill="#fff" style="fill:var(--color2, #fff)" d="m13.102 18.375-.317 4.17c.454 0 .651-.183.887-.401l2.13-1.9 4.415 3.017c.81.42 1.38.199 1.599-.695l2.897-12.673h.001c.257-1.118-.433-1.554-1.222-1.28L6.46 14.699c-1.162.42-1.145 1.026-.198 1.3l4.355 1.264 10.114-5.907c.476-.294.91-.131.553.163l-8.181 6.856z"/></symbol><symbol id="icon-Vector-red" viewBox="0 0 26 32"><path fill="none" stroke="#d41443" style="stroke:var(--color1, #d41443)" stroke-linejoin="round" stroke-linecap="round" stroke-width="6.4" d="M3.542 3.2 20.368 16 3.542 28.8"/></symbol><symbol id="icon-Vector-white" viewBox="0 0 19 32"><path fill="none" stroke="#fff" style="stroke:var(--color2, #fff)" stroke-linejoin="round" stroke-linecap="round" stroke-width="6.4" d="M3.2 3.2 14.752 16 3.2 28.8"/></symbol><symbol id="icon-person" viewBox="0 0 18 18"><path d="M9 9a3 3 0 1 0 0-6 3 3 0 1 0 0 6Zm0 1.5c-2.003 0-6 1.005-6 3v.75c0 .412.337.75.75.75h10.5c.412 0 .75-.338.75-.75v-.75c0-1.995-3.998-3-6-3Z" /></symbol><symbol id="icon-phone-18" viewBox="0 0 18 18"><path d="m13.996 11.123-1.838-.21a1.44 1.44 0 0 0-1.187.412l-1.332 1.332a10.888 10.888 0 0 1-4.769-4.77L6.21 6.55a1.44 1.44 0 0 0 .412-1.187l-.21-1.824a1.448 1.448 0 0 0-1.44-1.28H3.72c-.818 0-1.498.68-1.448 1.497.384 6.18 5.327 11.116 11.5 11.5.817.05 1.498-.63 1.498-1.448v-1.252a1.434 1.434 0 0 0-1.274-1.432Z" /></symbol><symbol id="icon-location" viewBox="0 0 32 32"><path d="M16 0C10.477 0 6 4.477 6 10c0 10 10 22 10 22s10-12 10-22c0-5.523-4.477-10-10-10zm0 16.125a6.125 6.125 0 1 1 0-12.25 6.125 6.125 0 0 1 0 12.25zM12.125 10a3.875 3.875 0 1 1 7.75 0 3.875 3.875 0 0 1-7.75 0z"/></symbol></defs></svg>
